<svg xmlns="http://www.w3.org/2000/svg" width="296.00054931640625" height="314.1010437011719" viewBox="-169.90306091308594 -154.43515014648438 296.00054931640625 314.1010437011719"><title>Neo4j Graph Visualization</title><desc>Created using Neo4j (http://www.neo4j.com/)</desc><g class="layer relationships"><g class="relationship" transform="translate(-140.90306756614564 -8.756248353534053) rotate(435.0390372351693)"><path class="outline" fill="#A5ABB6" stroke="none" d="M 25 0.5 L 51.4343952914232 0.5 L 51.4343952914232 -0.5 L 25 -0.5 Z M 85.8797077914232 0.5 L 112.3141030828464 0.5 L 112.3141030828464 3.5 L 119.3141030828464 0 L 112.3141030828464 -3.5 L 112.3141030828464 -0.5 L 85.8797077914232 -0.5 Z"/><text text-anchor="middle" pointer-events="none" font-size="8px" fill="#000000" x="68.6570515414232" y="3" font-family="sans-serif">ORIGIN</text></g><g class="relationship" transform="translate(-140.90306756614564 -8.756248353534053) rotate(308.3176458763101)"><path class="outline" fill="#A5ABB6" stroke="none" d="M 25 0.5 L 41.26329103018314 0.5 L 41.26329103018314 -0.5 L 25 -0.5 Z M 100.45079103018314 0.5 L 116.71408206036628 0.5 L 116.71408206036628 3.5 L 123.71408206036628 0 L 116.71408206036628 -3.5 L 116.71408206036628 -0.5 L 100.45079103018314 -0.5 Z"/><text text-anchor="middle" pointer-events="none" font-size="8px" fill="#000000" x="70.85704103018314" y="3" font-family="sans-serif">DESTINATION</text></g><g class="relationship" transform="translate(97.09747524531312 -99.81201031492053) rotate(189.96782807746274)"><path class="outline" fill="#A5ABB6" stroke="none" d="M 25 0.5 L 53.29195373731744 0.5 L 53.29195373731744 -0.5 L 25 -0.5 Z M 87.73726623731744 0.5 L 116.02921997463488 0.5 L 116.02921997463488 3.5 L 123.02921997463488 0 L 116.02921997463488 -3.5 L 116.02921997463488 -0.5 L 87.73726623731744 -0.5 Z"/><text text-anchor="middle" pointer-events="none" font-size="8px" fill="#000000" x="70.51460998731744" y="3" transform="rotate(180 70.51460998731744 0)" font-family="sans-serif">ORIGIN</text></g><g class="relationship" transform="translate(97.09747524531312 -99.81201031492053) rotate(476.1181117503944)"><path class="outline" fill="#A5ABB6" stroke="none" d="M 25 0.5 L 39.6288643401098 0.5 L 39.6288643401098 -0.5 L 25 -0.5 Z M 98.8163643401098 0.5 L 113.4452286802196 0.5 L 113.4452286802196 3.5 L 120.4452286802196 0 L 113.4452286802196 -3.5 L 113.4452286802196 -0.5 L 98.8163643401098 -0.5 Z"/><text text-anchor="middle" pointer-events="none" font-size="8px" fill="#000000" x="69.2226143401098" y="3" transform="rotate(180 69.2226143401098 0)" font-family="sans-serif">DESTINATION</text></g></g><g class="layer nodes"><g class="node" aria-label="graph-node21" transform="translate(-103.6468128010575,130.66588701056537)"><circle class="outline" cx="0" cy="0" r="25" fill="#ECB5C9" stroke="#da7298" stroke-width="2px"/><text class="caption" text-anchor="middle" pointer-events="none" x="0" y="5" font-size="10px" fill="#2A2C34" font-family="sans-serif"> MSN</text></g><g class="node" aria-label="graph-node68" transform="translate(33.06913698340999,30.781582350495796)"><circle class="outline" cx="0" cy="0" r="25" fill="#ECB5C9" stroke="#da7298" stroke-width="2px"/><text class="caption" text-anchor="middle" pointer-events="none" x="0" y="5" font-size="10px" fill="#2A2C34" font-family="sans-serif"> GRR</text></g><g class="node" aria-label="graph-node271" transform="translate(-140.90306756614564,-8.756248353534053)"><circle class="outline" cx="0" cy="0" r="25" fill="#8DCC93" stroke="#5db665" stroke-width="2px"/><text class="caption" text-anchor="middle" pointer-events="none" x="0" y="5" font-size="10px" fill="#2A2C34" font-family="sans-serif"> 11/30/20…</text></g><g class="node" aria-label="graph-node7" transform="translate(-48.69725878933132,-125.43515403434212)"><circle class="outline" cx="0" cy="0" r="25" fill="#ECB5C9" stroke="#da7298" stroke-width="2px"/><text class="caption" text-anchor="middle" pointer-events="none" x="0" y="5" font-size="10px" fill="#2A2C34" font-family="sans-serif"> ORD</text></g><g class="node" aria-label="graph-node851" transform="translate(97.09747524531312,-99.81201031492053)"><circle class="outline" cx="0" cy="0" r="25" fill="#8DCC93" stroke="#5db665" stroke-width="2px"/><text class="caption" text-anchor="middle" pointer-events="none" x="0" y="5" font-size="10px" fill="#2A2C34" font-family="sans-serif"> 11/17/20…</text></g></g></svg>