<svg xmlns="http://www.w3.org/2000/svg" width="533.0016479492188" height="389.8826904296875" viewBox="-249.34393310546875 -203.06398010253906 533.0016479492188 389.8826904296875"><title>Neo4j Graph Visualization</title><desc>Created using Neo4j (http://www.neo4j.com/)</desc><g class="layer relationships"><g class="relationship" transform="translate(-43.31572378961743 -47.303849474252736) rotate(367.1999081306915)"><path class="outline" fill="#A5ABB6" stroke="none" d="M 24.018736134675446,-6.953439040707552 L 24.277555179777966,-5.987513214418485 A 180.208591685974 180.208591685974 0 0 1 57.798227342072074,-11.649685589340322 L 57.72541869663299,-12.647031517867276 A 181.208591685974 181.208591685974 0 0 0 24.018736134675446,-6.953439040707552 Z M 79.78281818298974,-12.911053979793678 L 79.7339030222829,-11.912251042747016 A 180.208591685974 180.208591685974 0 0 1 113.38050177351474,-7.054056862917331 L 112.67362874525821,-4.13852423200348 L 120.30122341702314,-5.890608568804405 L 114.32299914452344,-10.941433704135799 L 113.61612611626691,-8.025901073221947 A 181.208591685974 181.208591685974 0 0 0 79.78281818298974,-12.911053979793678"/><text text-anchor="middle" pointer-events="none" font-size="8px" fill="#000000" x="68.75608166363355" y="-9.615027869902121" font-family="sans-serif">road</text></g><g class="relationship" transform="translate(100.14144081768467 -29.181228729038235) rotate(359.9689279629973)"><path class="outline" fill="#A5ABB6" stroke="none" d="M 21.40063509461097,-12.933012701892217 L 21.90063509461097,-12.06698729810778 A 108.13280481959465 108.13280481959465 0 0 1 50.72023147995391,-23.565428821888162 L 50.48675186138141,-24.53779051781784 A 109.13280481959465 109.13280481959465 0 0 0 21.40063509461097,-12.933012701892217 Z M 96.79944727334288,-25.54723094519639 L 96.60855682749232,-24.565619597623964 A 108.13280481959465 108.13280481959465 0 0 1 125.90178980922467,-14.333816493194293 L 124.516416913697,-11.672850138589766 L 132.34160678588984,-11.544774129397176 L 127.74895366992821,-17.881771632666997 L 126.36358077440055,-15.22080527806247 A 109.13280481959465 109.13280481959465 0 0 0 96.79944727334288,-25.54723094519639"/><text text-anchor="middle" pointer-events="none" font-size="8px" fill="#000000" x="73.59981820715686" y="-24.028241040930524" font-family="sans-serif">twowheeler</text></g><g class="relationship" transform="translate(254.65774450369756 -29.265024373623707) rotate(218.56744662761997)"><path class="outline" fill="#A5ABB6" stroke="none" d="M 21.40063509461097,12.933012701892217 L 21.90063509461097,12.06698729810778 A 97.73675796727117 97.73675796727117 0 0 0 45.664836320386755,21.882156281763457 L 45.40798129183888,22.84860622579039 A 98.73675796727117 98.73675796727117 0 0 1 21.40063509461097,12.933012701892217 Z M 91.6626758253072,23.925260989346853 L 91.45106606439134,22.947906750043046 A 97.73675796727117 97.73675796727117 0 0 0 115.64621146661847,14.2490711358951 L 114.26871956935092,11.58401652614275 L 122.09425420558522,11.47909914389621 L 117.48286732964188,17.802477282231568 L 116.10537543237433,15.137422672479218 A 98.73675796727117 98.73675796727117 0 0 1 91.6626758253072,23.925260989346853"/><text text-anchor="middle" pointer-events="none" font-size="8px" fill="#000000" x="68.48300973481126" y="28.63462831284049" transform="rotate(180 68.48300973481126 25.63462831284049)" font-family="sans-serif">twowheeler</text></g><g class="relationship" transform="translate(141.83083019946616 -119.22865879347933) rotate(471.930038355583)"><path class="outline" fill="#A5ABB6" stroke="none" d="M 25 0.5 L 88.88606759330737 0.5 L 88.88606759330737 -0.5 L 25 -0.5 Z M 108.22200509330737 0.5 L 172.10807268661475 0.5 L 172.10807268661475 3.5 L 179.10807268661475 0 L 172.10807268661475 -3.5 L 172.10807268661475 -0.5 L 108.22200509330737 -0.5 Z"/><text text-anchor="middle" pointer-events="none" font-size="8px" fill="#000000" x="98.55403634330737" y="3" transform="rotate(180 98.55403634330737 0)" font-family="sans-serif">trek</text></g><g class="relationship" transform="translate(254.65774450369756 -29.265024373623707) rotate(218.56744662761997)"><path class="outline" fill="#A5ABB6" stroke="none" d="M 25 0.5 L 57.645661935094026 0.5 L 57.645661935094026 -0.5 L 25 -0.5 Z M 79.65738068509403 0.5 L 112.30304262018805 0.5 L 112.30304262018805 3.5 L 119.30304262018805 0 L 112.30304262018805 -3.5 L 112.30304262018805 -0.5 L 79.65738068509403 -0.5 Z"/><text text-anchor="middle" pointer-events="none" font-size="8px" fill="#000000" x="68.65152131009403" y="3" transform="rotate(180 68.65152131009403 0)" font-family="sans-serif">road</text></g><g class="relationship" transform="translate(254.65774450369756 -29.265024373623707) rotate(218.56744662761997)"><path class="outline" fill="#A5ABB6" stroke="none" d="M 21.40063509461097,-12.933012701892217 L 21.90063509461097,-12.06698729810778 A 97.73675796727117 97.73675796727117 0 0 1 58.90500903475616,-24.4384877151318 L 58.78362169502608,-25.431092930589216 A 98.73675796727117 98.73675796727117 0 0 0 21.40063509461097,-12.933012701892217 Z M 78.1813632700942,-25.882607551530498 L 78.1062914392538,-24.885429422902376 A 97.73675796727117 97.73675796727117 0 0 1 115.64621146661847,-14.2490711358951 L 114.26871956935092,-11.58401652614275 L 122.09425420558522,-11.47909914389621 L 117.48286732964188,-17.802477282231568 L 116.10537543237433,-15.137422672479218 A 98.73675796727117 98.73675796727117 0 0 0 78.1813632700942,-25.882607551530498"/><text text-anchor="middle" pointer-events="none" font-size="8px" fill="#000000" x="68.48300973481126" y="-22.63462831284049" transform="rotate(180 68.48300973481126 -25.63462831284049)" font-family="sans-serif">trek</text></g><g class="relationship" transform="translate(100.14144081768467 -29.181228729038235) rotate(359.9689279629973)"><path class="outline" fill="#A5ABB6" stroke="none" d="M 25 0.5 L 62.752303828797125 0.5 L 62.752303828797125 -0.5 L 25 -0.5 Z M 84.76402257879712 0.5 L 122.51632640759425 0.5 L 122.51632640759425 3.5 L 129.51632640759425 0 L 122.51632640759425 -3.5 L 122.51632640759425 -0.5 L 84.76402257879712 -0.5 Z"/><text text-anchor="middle" pointer-events="none" font-size="8px" fill="#000000" x="73.75816320379712" y="3" font-family="sans-serif">road</text></g><g class="relationship" transform="translate(100.14144081768467 -29.181228729038235) rotate(359.9689279629973)"><path class="outline" fill="#A5ABB6" stroke="none" d="M 21.40063509461097,12.933012701892217 L 21.90063509461097,12.06698729810778 A 108.13280481959465 108.13280481959465 0 0 0 64.01154946971505,25.89108657581832 L 63.90098646291392,26.88495569271808 A 109.13280481959465 109.13280481959465 0 0 1 21.40063509461097,12.933012701892217 Z M 83.2956821856067,27.30768621541911 L 83.22852873258849,26.309943556339263 A 108.13280481959465 108.13280481959465 0 0 0 125.90178980922467,14.333816493194293 L 124.516416913697,11.672850138589766 L 132.34160678588984,11.544774129397176 L 127.74895366992821,17.881771632666997 L 126.36358077440055,15.22080527806247 A 109.13280481959465 109.13280481959465 0 0 1 83.2956821856067,27.30768621541911"/><text text-anchor="middle" pointer-events="none" font-size="8px" fill="#000000" x="73.59981820715684" y="30.028241040930524" font-family="sans-serif">trek</text></g><g class="relationship" transform="translate(-43.31572378961743 -47.303849474252736) rotate(367.1999081306915)"><path class="outline" fill="#A5ABB6" stroke="none" d="M 24.018736134675446,6.953439040707552 L 24.277555179777966,5.987513214418485 A 180.208591685974 180.208591685974 0 0 0 59.12922258019279,11.741899427097934 L 59.06379979369456,12.739757061736668 A 181.208591685974 181.208591685974 0 0 1 24.018736134675446,6.953439040707552 Z M 78.44260105372948,12.97171726271236 L 78.4010818841111,11.972579555209421 A 180.208591685974 180.208591685974 0 0 0 113.38050177351474,7.054056862917331 L 112.67362874525821,4.13852423200348 L 120.30122341702314,5.890608568804405 L 114.32299914452344,10.941433704135799 L 113.61612611626691,8.025901073221947 A 181.208591685974 181.208591685974 0 0 1 78.44260105372948,12.97171726271236"/><text text-anchor="middle" pointer-events="none" font-size="8px" fill="#000000" x="68.75608166363365" y="15.615027869902121" font-family="sans-serif">trek</text></g><g class="relationship" transform="translate(-43.31572378961743 -47.303849474252736) rotate(287.37693651532925)"><path class="outline" fill="#A5ABB6" stroke="none" d="M 21.40063509461097,12.933012701892217 L 21.90063509461097,12.06698729810778 A 86.01674983571208 86.01674983571208 0 0 0 53.16646053874676,22.785761887463195 L 53.029945854151634,23.776399934829584 A 87.01674983571208 87.01674983571208 0 0 1 21.40063509461097,12.933012701892217 Z M 72.43102075019189,24.265323467103016 L 72.34457749930138,23.26906669077701 A 86.01674983571208 86.01674983571208 0 0 0 104.11061690555692,14.138748523221377 L 102.74338528027593,11.468415644565333 L 110.56926555996786,11.393596877341716 L 105.93359240593159,17.699192361429436 L 104.5663607806506,15.028859482773392 A 87.01674983571208 87.01674983571208 0 0 1 72.43102075019189,24.265323467103016"/><text text-anchor="middle" pointer-events="none" font-size="8px" fill="#000000" x="62.72940658697702" y="27.063587057296985" font-family="sans-serif">trek</text></g><g class="relationship" transform="translate(-3.6475378663703806 -174.06397418014467) rotate(510.9848756575545)"><path class="outline" fill="#A5ABB6" stroke="none" d="M 24.018736134675446,-6.953439040707552 L 24.277555179777966,-5.987513214418485 A 250.66488602722768 250.66488602722768 0 0 1 63.58793440205022,-13.221482528356745 L 63.48593979233353,-14.21626747978533 A 251.66488602722768 251.66488602722768 0 0 0 24.018736134675446,-6.953439040707552 Z M 109.97474454012688,-14.665995465139133 L 109.89201411536752,-13.669423502449462 A 250.66488602722768 250.66488602722768 0 0 1 149.33498463126605,-7.197306111995828 L 148.61473317567146,-4.28504962591603 L 156.25029167471803,-6.0020954632883825 L 150.2953199053922,-11.080314760102226 L 149.5750684497976,-8.168058274022428 A 251.66488602722768 251.66488602722768 0 0 0 109.97474454012688,-14.665995465139133"/><text text-anchor="middle" pointer-events="none" font-size="8px" fill="#000000" x="86.7247716559142" y="-12.01696036205766" transform="rotate(180 86.7247716559142 -15.01696036205766)" font-family="sans-serif">twowheeler</text></g><g class="relationship" transform="translate(-161.50998907313596 -86.50490600042063) rotate(422.32746245000726)"><path class="outline" fill="#A5ABB6" stroke="none" d="M 24.018736134675446,-6.953439040707552 L 24.277555179777966,-5.987513214418485 A 205.27436059203086 205.27436059203086 0 0 1 52.02950380710484,-11.407419031232536 L 51.90587918446836,-12.399748085870158 A 206.27436059203086 206.27436059203086 0 0 0 24.018736134675446,-6.953439040707552 Z M 98.38190226026884,-12.912831156861472 L 98.2802152012091,-11.918014720517647 A 205.27436059203086 205.27436059203086 0 0 1 126.14505415789006,-7.11210361073209 L 125.43275986777387,-4.197890707688137 L 133.063599980012,-5.935785750968295 L 127.09477987804497,-10.997720814790695 L 126.38248558792878,-8.083507911746741 A 206.27436059203086 206.27436059203086 0 0 0 98.38190226026884,-12.912831156861472"/><text text-anchor="middle" pointer-events="none" font-size="8px" fill="#000000" x="75.13491277213998" y="-10.469529125044374" font-family="sans-serif">twowheeler</text></g><g class="relationship" transform="translate(-88.43447774033316 52.845678487275364) rotate(366.3951010414181)"><path class="outline" fill="#A5ABB6" stroke="none" d="M 24.018736134675446,6.953439040707552 L 24.277555179777966,5.987513214418485 A 200.66418188889907 200.66418188889907 0 0 0 50.85919955085657,11.216782482580868 L 50.732848812358945,12.208768112961224 A 201.66418188889907 201.66418188889907 0 0 1 24.018736134675446,6.953439040707552 Z M 97.2067893518182,12.729275302600826 L 97.10268795893504,11.734708613032069 A 200.66418188889907 200.66418188889907 0 0 0 123.79478511520384,7.102104167394132 L 123.08342470880595,4.187663162293938 L 130.7137075281706,5.928003386649088 L 124.7432656570677,10.988025507527723 L 124.03190525066981,8.07358450242753 A 201.66418188889907 201.66418188889907 0 0 1 97.2067893518182,12.729275302600826"/><text text-anchor="middle" pointer-events="none" font-size="8px" fill="#000000" x="73.9603736698" y="16.3123636208353" font-family="sans-serif">twowheeler</text></g><g class="relationship" transform="translate(-88.43447774033316 52.845678487275364) rotate(366.3951010414181)"><path class="outline" fill="#A5ABB6" stroke="none" d="M 24.018736134675446,-6.953439040707552 L 24.277555179777966,-5.987513214418485 A 200.66418188889907 200.66418188889907 0 0 1 64.32894617014911,-12.472746258324605 L 64.2697212459971,-13.470990921901205 A 201.66418188889907 201.66418188889907 0 0 0 24.018736134675446,-6.953439040707552 Z M 83.64504241703773,-13.687994125288725 L 83.60819018465374,-12.688673399511316 A 200.66418188889907 200.66418188889907 0 0 1 123.79478511520384,-7.102104167394132 L 123.08342470880595,-4.187663162293938 L 130.7137075281706,-5.928003386649088 L 124.7432656570677,-10.988025507527723 L 124.03190525066981,-8.07358450242753 A 201.66418188889907 201.66418188889907 0 0 0 83.64504241703773,-13.687994125288725"/><text text-anchor="middle" pointer-events="none" font-size="8px" fill="#000000" x="73.96037366979996" y="-10.3123636208353" font-family="sans-serif">trek</text></g><g class="relationship" transform="translate(-161.50998907313596 -86.50490600042063) rotate(422.32746245000726)"><path class="outline" fill="#A5ABB6" stroke="none" d="M 24.018736134675446,6.953439040707552 L 24.277555179777966,5.987513214418485 A 205.27436059203086 205.27436059203086 0 0 0 65.50259114609959,12.63662331076506 L 65.44460105911647,13.634940469693873 A 206.27436059203086 206.27436059203086 0 0 1 24.018736134675446,6.953439040707552 Z M 84.81921099373892,13.848831067611457 L 84.78327467184111,12.84947698583241 A 205.27436059203086 205.27436059203086 0 0 0 126.14505415789006,7.11210361073209 L 125.43275986777387,4.197890707688137 L 133.063599980012,5.935785750968295 L 127.09477987804497,10.997720814790695 L 126.38248558792878,8.083507911746741 A 206.27436059203086 206.27436059203086 0 0 1 84.81921099373892,13.848831067611457"/><text text-anchor="middle" pointer-events="none" font-size="8px" fill="#000000" x="75.13491277213998" y="16.469529125044374" font-family="sans-serif">trek</text></g><g class="relationship" transform="translate(-3.6475378663703806 -174.06397418014467) rotate(510.9848756575545)"><path class="outline" fill="#A5ABB6" stroke="none" d="M 24.018736134675446,6.953439040707552 L 24.277555179777966,5.987513214418485 A 250.66488602722768 250.66488602722768 0 0 0 77.08551591717446,14.23800021408374 L 77.03736842473472,15.236840451044486 A 251.66488602722768 251.66488602722768 0 0 1 24.018736134675446,6.953439040707552 Z M 96.40610808146918,15.424211675405303 L 96.37729314993913,14.424626911755439 A 250.66488602722768 250.66488602722768 0 0 0 149.33498463126605,7.197306111995828 L 148.61473317567146,4.28504962591603 L 156.25029167471803,6.0020954632883825 L 150.2953199053922,11.080314760102226 L 149.5750684497976,8.168058274022428 A 251.66488602722768 251.66488602722768 0 0 1 96.40610808146918,15.424211675405303"/><text text-anchor="middle" pointer-events="none" font-size="8px" fill="#000000" x="86.72477165591425" y="18.01696036205766" transform="rotate(180 86.72477165591425 15.01696036205766)" font-family="sans-serif">trek</text></g><g class="relationship" transform="translate(-3.6475378663703806 -174.06397418014467) rotate(380.6529843946674)"><path class="outline" fill="#A5ABB6" stroke="none" d="M 25 0.5 L 64.56694520224875 0.5 L 64.56694520224875 -0.5 L 25 -0.5 Z M 83.90288270224875 0.5 L 123.46982790449749 0.5 L 123.46982790449749 3.5 L 130.4698279044975 0 L 123.46982790449749 -3.5 L 123.46982790449749 -0.5 L 83.90288270224875 -0.5 Z"/><text text-anchor="middle" pointer-events="none" font-size="8px" fill="#000000" x="74.23491395224875" y="3" font-family="sans-serif">trek</text></g><g class="relationship" transform="translate(-43.31572378961743 -47.303849474252736) rotate(287.37693651532925)"><path class="outline" fill="#A5ABB6" stroke="none" d="M 25 0.5 L 51.90516039938416 0.5 L 51.90516039938416 -0.5 L 25 -0.5 Z M 73.91687914938416 0.5 L 100.82203954876832 0.5 L 100.82203954876832 3.5 L 107.82203954876832 0 L 100.82203954876832 -3.5 L 100.82203954876832 -0.5 L 73.91687914938416 -0.5 Z"/><text text-anchor="middle" pointer-events="none" font-size="8px" fill="#000000" x="62.91101977438416" y="3" font-family="sans-serif">road</text></g><g class="relationship" transform="translate(-43.31572378961743 -47.303849474252736) rotate(287.37693651532925)"><path class="outline" fill="#A5ABB6" stroke="none" d="M 21.40063509461097,-12.933012701892217 L 21.90063509461097,-12.06698729810778 A 86.01674983571208 86.01674983571208 0 0 1 32.8497359210547,-17.393368426652202 L 32.477026255174,-18.321316434333184 A 87.01674983571208 87.01674983571208 0 0 0 21.40063509461097,-12.933012701892217 Z M 93.23262226355635,-19.852408951885323 L 92.90712616878649,-18.90686556721724 A 86.01674983571208 86.01674983571208 0 0 1 104.11061690555692,-14.138748523221377 L 102.74338528027593,-11.468415644565333 L 110.56926555996786,-11.393596877341716 L 105.93359240593159,-17.699192361429436 L 104.5663607806506,-15.028859482773392 A 87.01674983571208 87.01674983571208 0 0 0 93.23262226355635,-19.852408951885323"/><text text-anchor="middle" pointer-events="none" font-size="8px" fill="#000000" x="62.729406586977" y="-21.063587057296985" font-family="sans-serif">PublicTransport</text></g><g class="relationship" transform="translate(-3.6475378663703806 -174.06397418014467) rotate(414.3835002785047)"><path class="outline" fill="#A5ABB6" stroke="none" d="M 25 0.5 L 75.94314450997636 0.5 L 75.94314450997636 -0.5 L 25 -0.5 Z M 95.27908200997636 0.5 L 146.22222651995273 0.5 L 146.22222651995273 3.5 L 153.22222651995273 0 L 146.22222651995273 -3.5 L 146.22222651995273 -0.5 L 95.27908200997636 -0.5 Z"/><text text-anchor="middle" pointer-events="none" font-size="8px" fill="#000000" x="85.61111325997636" y="3" font-family="sans-serif">trek</text></g><g class="relationship" transform="translate(-161.50998907313596 -86.50490600042063) rotate(469.9062055133886)"><path class="outline" fill="#A5ABB6" stroke="none" d="M 24.018736134675446,-6.953439040707552 L 24.277555179777966,-5.987513214418485 A 235.55482718943534 235.55482718943534 0 0 1 59.73388619958604,-12.628468363776705 L 59.62558977990733,-13.622587011365994 A 236.55482718943534 236.55482718943534 0 0 0 24.018736134675446,-6.953439040707552 Z M 106.11135141887105,-14.09162703233693 L 106.02313626365918,-13.095525588511578 A 235.55482718943534 235.55482718943534 0 0 1 141.6062490326791,-7.171356418982204 L 140.88842101255813,-4.25850164513418 L 148.5225481750113,-5.981900167674642 L 142.56335305950705,-11.055162784112904 L 141.84552503938608,-8.142308010264879 A 236.55482718943534 236.55482718943534 0 0 0 106.11135141887105,-14.09162703233693"/><text text-anchor="middle" pointer-events="none" font-size="8px" fill="#000000" x="82.86196532086444" y="-11.501834152535139" transform="rotate(180 82.86196532086444 -14.501834152535139)" font-family="sans-serif">twowheeler</text></g><g class="relationship" transform="translate(-220.34392600410945 75.96706781838607) rotate(350.05806218228145)"><path class="outline" fill="#A5ABB6" stroke="none" d="M 21.40063509461097,12.933012701892217 L 21.90063509461097,12.06698729810778 A 87.13985355718769 87.13985355718769 0 0 0 40.54541409897973,20.100708851669054 L 40.259377954130485,21.05892768045493 A 88.13985355718769 88.13985355718769 0 0 1 21.40063509461097,12.933012701892217 Z M 86.42949650393588,22.213323450722015 L 86.19170470164826,21.242007303031258 A 87.13985355718769 87.13985355718769 0 0 0 105.21467131432927,14.150095898146793 L 103.84638431984717,11.480303640174053 L 111.67223441534601,11.40239162068405 L 107.03905397363872,17.709818908777113 L 105.67076697915662,15.040026650804373 A 88.13985355718769 88.13985355718769 0 0 1 86.42949650393588,22.213323450722015"/><text text-anchor="middle" pointer-events="none" font-size="8px" fill="#000000" x="63.27997907929788" y="27.21413259873229" font-family="sans-serif">twowheeler</text></g><g class="relationship" transform="translate(-220.34392600410945 75.96706781838607) rotate(350.05806218228145)"><path class="outline" fill="#A5ABB6" stroke="none" d="M 25 0.5 L 52.45439224089276 0.5 L 52.45439224089276 -0.5 L 25 -0.5 Z M 74.46611099089276 0.5 L 101.92050323178552 0.5 L 101.92050323178552 3.5 L 108.92050323178552 0 L 101.92050323178552 -3.5 L 101.92050323178552 -0.5 L 74.46611099089276 -0.5 Z"/><text text-anchor="middle" pointer-events="none" font-size="8px" fill="#000000" x="63.46025161589276" y="3" font-family="sans-serif">road</text></g><g class="relationship" transform="translate(-220.34392600410945 75.96706781838607) rotate(350.05806218228145)"><path class="outline" fill="#A5ABB6" stroke="none" d="M 21.40063509461097,-12.933012701892217 L 21.90063509461097,-12.06698729810778 A 87.13985355718769 87.13985355718769 0 0 1 53.715387173073054,-22.944986441290624 L 53.58048707604206,-23.93584564613309 A 88.13985355718769 88.13985355718769 0 0 0 21.40063509461097,-12.933012701892217 Z M 72.98125866888533,-24.420924943526188 L 72.89604526663244,-23.4245622203794 A 87.13985355718769 87.13985355718769 0 0 1 105.21467131432927,-14.150095898146793 L 103.84638431984717,-11.480303640174053 L 111.67223441534601,-11.40239162068405 L 107.03905397363872,-17.709818908777113 L 105.67076697915662,-15.040026650804373 A 88.13985355718769 88.13985355718769 0 0 0 72.98125866888533,-24.420924943526188"/><text text-anchor="middle" pointer-events="none" font-size="8px" fill="#000000" x="63.2799790792979" y="-21.21413259873229" font-family="sans-serif">trek</text></g><g class="relationship" transform="translate(-161.50998907313596 -86.50490600042063) rotate(469.9062055133886)"><path class="outline" fill="#A5ABB6" stroke="none" d="M 24.018736134675446,6.953439040707552 L 24.277555179777966,5.987513214418485 A 235.55482718943534 235.55482718943534 0 0 0 73.22470041664951,13.707023028297186 L 73.17367649857067,14.705720459846845 A 236.55482718943534 236.55482718943534 0 0 1 24.018736134675446,6.953439040707552 Z M 92.54416766714996,14.901168168211598 L 92.51330574337672,13.901644510832256 A 235.55482718943534 235.55482718943534 0 0 0 141.6062490326791,7.171356418982204 L 140.88842101255813,4.25850164513418 L 148.5225481750113,5.981900167674642 L 142.56335305950705,11.055162784112904 L 141.84552503938608,8.142308010264879 A 236.55482718943534 236.55482718943534 0 0 1 92.54416766714996,14.901168168211598"/><text text-anchor="middle" pointer-events="none" font-size="8px" fill="#000000" x="82.86196532086448" y="17.50183415253514" transform="rotate(180 82.86196532086448 14.501834152535139)" font-family="sans-serif">trek</text></g><g class="relationship" transform="translate(-220.34392600410945 75.96706781838607) rotate(389.4899063803837)"><path class="outline" fill="#A5ABB6" stroke="none" d="M 25 0.5 L 69.96891631351652 0.5 L 69.96891631351652 -0.5 L 25 -0.5 Z M 89.30485381351652 0.5 L 134.27377012703303 0.5 L 134.27377012703303 3.5 L 141.27377012703303 0 L 134.27377012703303 -3.5 L 134.27377012703303 -0.5 L 89.30485381351652 -0.5 Z"/><text text-anchor="middle" pointer-events="none" font-size="8px" fill="#000000" x="79.63688506351652" y="3" font-family="sans-serif">trek</text></g><g class="relationship" transform="translate(-75.61218129596713 157.81869398423902) rotate(328.15545055527633)"><path class="outline" fill="#A5ABB6" stroke="none" d="M 25 0.5 L 69.94962597732888 0.5 L 69.94962597732888 -0.5 L 25 -0.5 Z M 89.28556347732888 0.5 L 134.23518945465776 0.5 L 134.23518945465776 3.5 L 141.23518945465776 0 L 134.23518945465776 -3.5 L 134.23518945465776 -0.5 L 89.28556347732888 -0.5 Z"/><text text-anchor="middle" pointer-events="none" font-size="8px" fill="#000000" x="79.61759472732888" y="3" font-family="sans-serif">trek</text></g></g><g class="layer nodes"><g class="node" aria-label="graph-node1" transform="translate(-43.31572378961743,-47.303849474252736)"><circle class="outline" cx="0" cy="0" r="25" fill="#57C7E3" stroke="#23b3d7" stroke-width="2px"/><text class="caption" text-anchor="middle" pointer-events="none" x="0" y="5" font-size="10px" fill="#2A2C34" font-family="sans-serif"> Darjeeling</text></g><g class="node" aria-label="graph-node3" transform="translate(65.60173790887664,70.11027229148586)"><circle class="outline" cx="0" cy="0" r="25" fill="#D9C8AE" stroke="#c0a378" stroke-width="2px"/><text class="caption" text-anchor="middle" pointer-events="none" x="0" y="5" font-size="10px" fill="#2A2C34" font-family="sans-serif"> Sandakp…</text></g><g class="node" aria-label="graph-node6" transform="translate(100.14144081768467,-29.181228729038235)"><circle class="outline" cx="0" cy="0" r="25" fill="#F16667" stroke="#eb2728" stroke-width="2px"/><text class="caption" text-anchor="middle" pointer-events="none" x="0" y="5" font-size="10px" fill="#FFFFFF" font-family="sans-serif"> Tumbling</text></g><g class="node" aria-label="graph-node7" transform="translate(254.65774450369756,-29.265024373623707)"><circle class="outline" cx="0" cy="0" r="25" fill="#F16667" stroke="#eb2728" stroke-width="2px"/><text class="caption" text-anchor="middle" pointer-events="none" x="0" y="5" font-size="10px" fill="#FFFFFF" font-family="sans-serif"> Gairibus</text></g><g class="node" aria-label="graph-node2" transform="translate(141.83083019946616,-119.22865879347933)"><circle class="outline" cx="0" cy="0" r="25" fill="#F16667" stroke="#eb2728" stroke-width="2px"/><text class="caption" text-anchor="middle" pointer-events="none" x="0" y="5" font-size="10px" fill="#FFFFFF" font-family="sans-serif"> BhikeBh…</text></g><g class="node" aria-label="graph-node0" transform="translate(-3.6475378663703806,-174.06397418014467)"><circle class="outline" cx="0" cy="0" r="25" fill="#57C7E3" stroke="#23b3d7" stroke-width="2px"/><text class="caption" text-anchor="middle" pointer-events="none" x="0" y="5" font-size="10px" fill="#2A2C34" font-family="sans-serif"> Rimbik</text></g><g class="node" aria-label="graph-node4" transform="translate(-161.50998907313596,-86.50490600042063)"><circle class="outline" cx="0" cy="0" r="25" fill="#F16667" stroke="#eb2728" stroke-width="2px"/><text class="caption" text-anchor="middle" pointer-events="none" x="0" y="5" font-size="10px" fill="#FFFFFF" font-family="sans-serif"> Sirikhola</text></g><g class="node" aria-label="graph-node5" transform="translate(-88.43447774033316,52.845678487275364)"><circle class="outline" cx="0" cy="0" r="25" fill="#F16667" stroke="#eb2728" stroke-width="2px"/><text class="caption" text-anchor="middle" pointer-events="none" x="0" y="5" font-size="10px" fill="#FFFFFF" font-family="sans-serif"> Gurdum</text></g><g class="node" aria-label="graph-node8" transform="translate(-220.34392600410945,75.96706781838607)"><circle class="outline" cx="0" cy="0" r="25" fill="#F16667" stroke="#eb2728" stroke-width="2px"/><text class="caption" text-anchor="middle" pointer-events="none" x="0" y="5" font-size="10px" fill="#FFFFFF" font-family="sans-serif"> Rammam</text></g><g class="node" aria-label="graph-node9" transform="translate(-75.61218129596713,157.81869398423902)"><circle class="outline" cx="0" cy="0" r="25" fill="#D9C8AE" stroke="#c0a378" stroke-width="2px"/><text class="caption" text-anchor="middle" pointer-events="none" x="0" y="5" font-size="10px" fill="#2A2C34" font-family="sans-serif"> Sabargr…</text></g></g></svg>