<svg xmlns="http://www.w3.org/2000/svg" width="379.86859130859375" height="214.9720458984375" viewBox="-331.9378967285156 -145.07586669921875 379.86859130859375 214.9720458984375"><title>Neo4j Graph Visualization</title><desc>Created using Neo4j (http://www.neo4j.com/)</desc><g class="layer relationships"><g class="relationship" transform="translate(-302.9379063764499 40.89618224673486) rotate(343.54841016513683)"><path class="outline" fill="#A5ABB6" stroke="none" d="M 21.40063509461097,12.933012701892217 L 21.90063509461097,12.06698729810778 A 89.4038882743428 89.4038882743428 0 0 0 54.82263227237911,23.265370366677445 L 54.69087125854875,24.256651878274624 A 90.4038882743428 90.4038882743428 0 0 1 21.40063509461097,12.933012701892217 Z M 74.09101694530642,24.734157898781007 L 74.00818380774491,23.737594468124584 A 89.4038882743428 89.4038882743428 0 0 0 107.44124480391096,14.172443452587014 L 106.07087938601732,11.503717422916452 L 113.89666644279121,11.419711815780289 L 109.26839869443582,17.730744825481096 L 107.89803327654218,15.062018795810534 A 90.4038882743428 90.4038882743428 0 0 1 74.09101694530642,24.734157898781007"/><text text-anchor="middle" pointer-events="none" font-size="8px" fill="#000000" x="64.39039739698296" y="27.517616452608507" font-family="sans-serif">trek</text></g><g class="relationship" transform="translate(-172.37535310603675 2.341755789082427) rotate(332.8036744192349)"><path class="outline" fill="#A5ABB6" stroke="none" d="M 25 0.5 L 45.962803702752225 0.5 L 45.962803702752225 -0.5 L 25 -0.5 Z M 65.29874120275223 0.5 L 86.26154490550445 0.5 L 86.26154490550445 3.5 L 93.26154490550445 0 L 86.26154490550445 -3.5 L 86.26154490550445 -0.5 L 65.29874120275223 -0.5 Z"/><text text-anchor="middle" pointer-events="none" font-size="8px" fill="#000000" x="55.630772452752225" y="3" font-family="sans-serif">trek</text></g><g class="relationship" transform="translate(-67.18813223179978 -51.708605617582876) rotate(323.22469039069944)"><path class="outline" fill="#A5ABB6" stroke="none" d="M 25 0.5 L 40.589814352471805 0.5 L 40.589814352471805 -0.5 L 25 -0.5 Z M 59.925751852471805 0.5 L 75.51556620494361 0.5 L 75.51556620494361 3.5 L 82.51556620494361 0 L 75.51556620494361 -3.5 L 75.51556620494361 -0.5 L 59.925751852471805 -0.5 Z"/><text text-anchor="middle" pointer-events="none" font-size="8px" fill="#000000" x="50.257783102471805" y="3" font-family="sans-serif">trek</text></g><g class="relationship" transform="translate(-302.9379063764499 40.89618224673486) rotate(343.54841016513683)"><path class="outline" fill="#A5ABB6" stroke="none" d="M 25 0.5 L 53.5621656366896 0.5 L 53.5621656366896 -0.5 L 25 -0.5 Z M 75.5738843866896 0.5 L 104.1360500233792 0.5 L 104.1360500233792 3.5 L 111.1360500233792 0 L 104.1360500233792 -3.5 L 104.1360500233792 -0.5 L 75.5738843866896 -0.5 Z"/><text text-anchor="middle" pointer-events="none" font-size="8px" fill="#000000" x="64.5680250116896" y="3" font-family="sans-serif">road</text></g><g class="relationship" transform="translate(-302.9379063764499 40.89618224673486) rotate(343.54841016513683)"><path class="outline" fill="#A5ABB6" stroke="none" d="M 21.40063509461097,-12.933012701892217 L 21.90063509461097,-12.06698729810778 A 89.4038882743428 89.4038882743428 0 0 1 34.44782488916528,-18.062331076870407 L 34.08816766437045,-18.995415575001672 A 90.4038882743428 90.4038882743428 0 0 0 21.40063509461097,-12.933012701892217 Z M 94.9276107160278,-20.492888883217688 L 94.61429419806689,-19.54324012732272 A 89.4038882743428 89.4038882743428 0 0 1 107.44124480391096,-14.172443452587014 L 106.07087938601732,-11.503717422916452 L 113.89666644279121,-11.419711815780289 L 109.26839869443582,-17.730744825481096 L 107.89803327654218,-15.062018795810534 A 90.4038882743428 90.4038882743428 0 0 0 94.9276107160278,-20.492888883217688"/><text text-anchor="middle" pointer-events="none" font-size="8px" fill="#000000" x="64.39039739698295" y="-21.517616452608507" font-family="sans-serif">PublicTransport</text></g></g><g class="layer nodes"><g class="node" aria-label="graph-node1" transform="translate(-302.9379063764499,40.89618224673486)"><circle class="outline" cx="0" cy="0" r="25" fill="#57C7E3" stroke="#23b3d7" stroke-width="2px"/><text class="caption" text-anchor="middle" pointer-events="none" x="0" y="5" font-size="10px" fill="#2A2C34" font-family="sans-serif"> Darjeeling</text></g><g class="node" aria-label="graph-node3" transform="translate(18.93070018142572,-116.07586189088065)"><circle class="outline" cx="0" cy="0" r="25" fill="#D9C8AE" stroke="#c0a378" stroke-width="2px"/><text class="caption" text-anchor="middle" pointer-events="none" x="0" y="5" font-size="10px" fill="#2A2C34" font-family="sans-serif"> Sandakp…</text></g><g class="node" aria-label="graph-node0" transform="translate(-172.37535310603675,2.341755789082427)"><circle class="outline" cx="0" cy="0" r="25" fill="#57C7E3" stroke="#23b3d7" stroke-width="2px"/><text class="caption" text-anchor="middle" pointer-events="none" x="0" y="5" font-size="10px" fill="#2A2C34" font-family="sans-serif"> Rimbik</text></g><g class="node" aria-label="graph-node2" transform="translate(-67.18813223179978,-51.708605617582876)"><circle class="outline" cx="0" cy="0" r="25" fill="#F16667" stroke="#eb2728" stroke-width="2px"/><text class="caption" text-anchor="middle" pointer-events="none" x="0" y="5" font-size="10px" fill="#FFFFFF" font-family="sans-serif"> BhikeBh…</text></g></g></svg>