<svg xmlns="http://www.w3.org/2000/svg" width="386.69720458984375" height="181.7825927734375" viewBox="-310.7665100097656 -142.3157196044922 386.69720458984375 181.7825927734375"><title>Neo4j Graph Visualization</title><desc>Created using Neo4j (http://www.neo4j.com/)</desc><g class="layer relationships"><g class="relationship" transform="translate(-281.76651366805197 -81.84632403003057) rotate(396.47840926546746)"><path class="outline" fill="#A5ABB6" stroke="none" d="M 21.40063509461097,12.933012701892217 L 21.90063509461097,12.06698729810778 A 108.90259438114644 108.90259438114644 0 0 0 64.39018154906603,25.998241657284666 L 64.28034256126145,26.99219105074394 A 109.90259438114644 109.90259438114644 0 0 1 21.40063509461097,12.933012701892217 Z M 83.6748153765543,27.41293273584698 L 83.60818471025743,26.41515502798373 A 108.90259438114644 108.90259438114644 0 0 0 126.66191872524787,14.339667737947096 L 125.27600170299628,11.678984741528076 L 133.10116522060085,11.549308518763224 L 128.50980808825,17.887245066505788 L 127.1238910659984,15.226562070086768 A 109.90259438114644 109.90259438114644 0 0 1 83.6748153765543,27.41293273584698"/><text text-anchor="middle" pointer-events="none" font-size="8px" fill="#000000" x="73.97912201690453" y="30.131433684507954" font-family="sans-serif">trek</text></g><g class="relationship" transform="translate(-156.9140313233521 10.466864409939168) rotate(301.031812877166)"><path class="outline" fill="#A5ABB6" stroke="none" d="M 25 0.5 L 59.06058834639428 0.5 L 59.06058834639428 -0.5 L 25 -0.5 Z M 78.39652584639428 0.5 L 112.45711419278857 0.5 L 112.45711419278857 3.5 L 119.45711419278857 0 L 112.45711419278857 -3.5 L 112.45711419278857 -0.5 L 78.39652584639428 -0.5 Z"/><text text-anchor="middle" pointer-events="none" font-size="8px" fill="#000000" x="68.72855709639428" y="3" font-family="sans-serif">trek</text></g><g class="relationship" transform="translate(-82.44437687213414 -113.31572082249387) rotate(388.49826362120325)"><path class="outline" fill="#A5ABB6" stroke="none" d="M 25 0.5 L 60.4383291214245 0.5 L 60.4383291214245 -0.5 L 25 -0.5 Z M 79.7742666214245 0.5 L 115.212595742849 0.5 L 115.212595742849 3.5 L 122.212595742849 0 L 115.212595742849 -3.5 L 115.212595742849 -0.5 L 79.7742666214245 -0.5 Z"/><text text-anchor="middle" pointer-events="none" font-size="8px" fill="#000000" x="70.1062978714245" y="3" font-family="sans-serif">trek</text></g><g class="relationship" transform="translate(-281.76651366805197 -81.84632403003057) rotate(396.47840926546746)"><path class="outline" fill="#A5ABB6" stroke="none" d="M 25 0.5 L 63.13090238704632 0.5 L 63.13090238704632 -0.5 L 25 -0.5 Z M 85.14262113704632 0.5 L 123.27352352409264 0.5 L 123.27352352409264 3.5 L 130.27352352409264 0 L 123.27352352409264 -3.5 L 123.27352352409264 -0.5 L 85.14262113704632 -0.5 Z"/><text text-anchor="middle" pointer-events="none" font-size="8px" fill="#000000" x="74.13676176204632" y="3" font-family="sans-serif">road</text></g><g class="relationship" transform="translate(-281.76651366805197 -81.84632403003057) rotate(396.47840926546746)"><path class="outline" fill="#A5ABB6" stroke="none" d="M 21.40063509461097,-12.933012701892217 L 21.90063509461097,-12.06698729810778 A 108.90259438114644 108.90259438114644 0 0 1 43.77412065601709,-21.670218913569897 L 43.47497432424883,-22.624426161598123 A 109.90259438114644 109.90259438114644 0 0 0 21.40063509461097,-12.933012701892217 Z M 104.65002830007414,-23.95155144833251 L 104.39254487873879,-22.985268732075284 A 108.90259438114644 108.90259438114644 0 0 1 126.66191872524787,-14.339667737947096 L 125.27600170299628,-11.678984741528076 L 133.10116522060085,-11.549308518763224 L 128.50980808825,-17.887245066505788 L 127.1238910659984,-15.226562070086768 A 109.90259438114644 109.90259438114644 0 0 0 104.65002830007414,-23.95155144833251"/><text text-anchor="middle" pointer-events="none" font-size="8px" fill="#000000" x="73.97912201690453" y="-24.131433684507954" font-family="sans-serif">PublicTransport</text></g></g><g class="layer nodes"><g class="node" aria-label="graph-node1" transform="translate(-281.76651366805197,-81.84632403003057)"><circle class="outline" cx="0" cy="0" r="25" fill="#57C7E3" stroke="#23b3d7" stroke-width="2px"/><text class="caption" text-anchor="middle" pointer-events="none" x="0" y="5" font-size="10px" fill="#2A2C34" font-family="sans-serif"> Darjeeling</text></g><g class="node" aria-label="graph-node3" transform="translate(46.93070018142574,-43.07586189088064)"><circle class="outline" cx="0" cy="0" r="25" fill="#D9C8AE" stroke="#c0a378" stroke-width="2px"/><text class="caption" text-anchor="middle" pointer-events="none" x="0" y="5" font-size="10px" fill="#2A2C34" font-family="sans-serif"> Sandakp…</text></g><g class="node" aria-label="graph-node0" transform="translate(-156.9140313233521,10.466864409939168)"><circle class="outline" cx="0" cy="0" r="25" fill="#57C7E3" stroke="#23b3d7" stroke-width="2px"/><text class="caption" text-anchor="middle" pointer-events="none" x="0" y="5" font-size="10px" fill="#2A2C34" font-family="sans-serif"> Rimbik</text></g><g class="node" aria-label="graph-node2" transform="translate(-82.44437687213414,-113.31572082249387)"><circle class="outline" cx="0" cy="0" r="25" fill="#F16667" stroke="#eb2728" stroke-width="2px"/><text class="caption" text-anchor="middle" pointer-events="none" x="0" y="5" font-size="10px" fill="#FFFFFF" font-family="sans-serif"> BhikeBh…</text></g></g></svg>