<svg xmlns="http://www.w3.org/2000/svg" width="349.77471923828125" height="346.1007080078125" viewBox="-207.96827697753906 -126.61422729492188 349.77471923828125 346.1007080078125"><title>Neo4j Graph Visualization</title><desc>Created using Neo4j (http://www.neo4j.com/)</desc><g class="layer relationships"><g class="relationship" transform="translate(-72.68233771936985 190.48648952382933) rotate(285.2762236592266)"><path class="outline" fill="#A5ABB6" stroke="none" d="M 25 0.5 L 46.157807422327366 0.5 L 46.157807422327366 -0.5 L 25 -0.5 Z M 93.04843242232737 0.5 L 114.20623984465473 0.5 L 114.20623984465473 3.5 L 121.20623984465473 0 L 114.20623984465473 -3.5 L 114.20623984465473 -0.5 L 93.04843242232737 -0.5 Z"/><text text-anchor="middle" pointer-events="none" font-size="8px" fill="#000000" x="69.60311992232737" y="3" font-family="sans-serif">DIRECTED</text></g><g class="relationship" transform="translate(66.09909941408063 156.4990479544701) rotate(226.87667592741246)"><path class="outline" fill="#A5ABB6" stroke="none" d="M 25 0.5 L 51.94881081351893 0.5 L 51.94881081351893 -0.5 L 25 -0.5 Z M 87.72224831351893 0.5 L 114.67105912703786 0.5 L 114.67105912703786 3.5 L 121.67105912703786 0 L 114.67105912703786 -3.5 L 114.67105912703786 -0.5 L 87.72224831351893 -0.5 Z"/><text text-anchor="middle" pointer-events="none" font-size="8px" fill="#000000" x="69.83552956351893" y="3" transform="rotate(180 69.83552956351893 0)" font-family="sans-serif">WROTE</text></g><g class="relationship" transform="translate(-141.48349330351485 -51.34201833572103) rotate(403.20160147032425)"><path class="outline" fill="#A5ABB6" stroke="none" d="M 25 0.5 L 47.33325830348426 0.5 L 47.33325830348426 -0.5 L 25 -0.5 Z M 92.89575830348426 0.5 L 115.22901660696851 0.5 L 115.22901660696851 3.5 L 122.22901660696851 0 L 115.22901660696851 -3.5 L 115.22901660696851 -0.5 L 92.89575830348426 -0.5 Z"/><text text-anchor="middle" pointer-events="none" font-size="8px" fill="#000000" x="70.11450830348426" y="3" font-family="sans-serif">ACTED_IN</text></g><g class="relationship" transform="translate(112.80644096835819 35.87722574868866) rotate(534.7250488056627)"><path class="outline" fill="#A5ABB6" stroke="none" d="M 25 0.5 L 52.40951794749097 0.5 L 52.40951794749097 -0.5 L 25 -0.5 Z M 88.18295544749097 0.5 L 115.59247339498194 0.5 L 115.59247339498194 3.5 L 122.59247339498194 0 L 115.59247339498194 -3.5 L 115.59247339498194 -0.5 L 88.18295544749097 -0.5 Z"/><text text-anchor="middle" pointer-events="none" font-size="8px" fill="#000000" x="70.29623669749097" y="3" transform="rotate(180 70.29623669749097 0)" font-family="sans-serif">WROTE</text></g><g class="relationship" transform="translate(57.833209452359434 -66.38377684956505) rotate(488.4572200314679)"><path class="outline" fill="#A5ABB6" stroke="none" d="M 25 0.5 L 52.571899411279475 0.5 L 52.571899411279475 -0.5 L 25 -0.5 Z M 88.34533691127947 0.5 L 115.91723632255895 0.5 L 115.91723632255895 3.5 L 122.91723632255895 0 L 115.91723632255895 -3.5 L 115.91723632255895 -0.5 L 88.34533691127947 -0.5 Z"/><text text-anchor="middle" pointer-events="none" font-size="8px" fill="#000000" x="70.45861816127947" y="3" transform="rotate(180 70.45861816127947 0)" font-family="sans-serif">WROTE</text></g><g class="relationship" transform="translate(-45.046519464224616 -97.61422879546835) rotate(445.76663542527757)"><path class="outline" fill="#A5ABB6" stroke="none" d="M 25 0.5 L 47.45011798991693 0.5 L 47.45011798991693 -0.5 L 25 -0.5 Z M 93.01261798991693 0.5 L 115.46273597983387 0.5 L 115.46273597983387 3.5 L 122.46273597983387 0 L 115.46273597983387 -3.5 L 115.46273597983387 -0.5 L 93.01261798991693 -0.5 Z"/><text text-anchor="middle" pointer-events="none" font-size="8px" fill="#000000" x="70.23136798991693" y="3" font-family="sans-serif">ACTED_IN</text></g><g class="relationship" transform="translate(-178.9682799381477 71.24589261438304) rotate(351.4388144593514)"><path class="outline" fill="#A5ABB6" stroke="none" d="M 25 0.5 L 46.93825343551336 0.5 L 46.93825343551336 -0.5 L 25 -0.5 Z M 92.50075343551336 0.5 L 114.43900687102672 0.5 L 114.43900687102672 3.5 L 121.43900687102672 0 L 114.43900687102672 -3.5 L 114.43900687102672 -0.5 L 92.50075343551336 -0.5 Z"/><text text-anchor="middle" pointer-events="none" font-size="8px" fill="#000000" x="69.71950343551336" y="3" font-family="sans-serif">ACTED_IN</text></g></g><g class="layer nodes"><g class="node" aria-label="graph-node200" transform="translate(-72.68233771936985,190.48648952382933)"><circle class="outline" cx="0" cy="0" r="25" fill="#C990C0" stroke="#b261a5" stroke-width="2px"/><text class="caption" text-anchor="middle" pointer-events="none" x="0" y="0" font-size="10px" fill="#FFFFFF" font-family="sans-serif"> Joe</text><text class="caption" text-anchor="middle" pointer-events="none" x="0" y="10" font-size="10px" fill="#FFFFFF" font-family="sans-serif"> Johnst…</text></g><g class="node" aria-label="graph-node201" transform="translate(66.09909941408063,156.4990479544701)"><circle class="outline" cx="0" cy="0" r="25" fill="#C990C0" stroke="#b261a5" stroke-width="2px"/><text class="caption" text-anchor="middle" pointer-events="none" x="0" y="5" font-size="10px" fill="#FFFFFF" font-family="sans-serif"> Christop…</text></g><g class="node" aria-label="graph-node202" transform="translate(112.80644096835819,35.87722574868866)"><circle class="outline" cx="0" cy="0" r="25" fill="#C990C0" stroke="#b261a5" stroke-width="2px"/><text class="caption" text-anchor="middle" pointer-events="none" x="0" y="0" font-size="10px" fill="#FFFFFF" font-family="sans-serif"> Stephen</text><text class="caption" text-anchor="middle" pointer-events="none" x="0" y="10" font-size="10px" fill="#FFFFFF" font-family="sans-serif"> McFe…</text></g><g class="node" aria-label="graph-node203" transform="translate(57.833209452359434,-66.38377684956505)"><circle class="outline" cx="0" cy="0" r="25" fill="#C990C0" stroke="#b261a5" stroke-width="2px"/><text class="caption" text-anchor="middle" pointer-events="none" x="0" y="0" font-size="10px" fill="#FFFFFF" font-family="sans-serif"> Joe</text><text class="caption" text-anchor="middle" pointer-events="none" x="0" y="10" font-size="10px" fill="#FFFFFF" font-family="sans-serif"> Simon</text></g><g class="node" aria-label="graph-node204" transform="translate(-141.48349330351485,-51.34201833572103)"><circle class="outline" cx="0" cy="0" r="25" fill="#C990C0" stroke="#b261a5" stroke-width="2px"/><text class="caption" text-anchor="middle" pointer-events="none" x="0" y="0" font-size="10px" fill="#FFFFFF" font-family="sans-serif"> Chris</text><text class="caption" text-anchor="middle" pointer-events="none" x="0" y="10" font-size="10px" fill="#FFFFFF" font-family="sans-serif"> Evans</text></g><g class="node" aria-label="graph-node4" transform="translate(-45.046519464224616,-97.61422879546835)"><circle class="outline" cx="0" cy="0" r="25" fill="#C990C0" stroke="#b261a5" stroke-width="2px"/><text class="caption" text-anchor="middle" pointer-events="none" x="0" y="0" font-size="10px" fill="#FFFFFF" font-family="sans-serif"> Hugo</text><text class="caption" text-anchor="middle" pointer-events="none" x="0" y="10" font-size="10px" fill="#FFFFFF" font-family="sans-serif"> Weavi…</text></g><g class="node" aria-label="graph-node205" transform="translate(-178.9682799381477,71.24589261438304)"><circle class="outline" cx="0" cy="0" r="25" fill="#C990C0" stroke="#b261a5" stroke-width="2px"/><text class="caption" text-anchor="middle" pointer-events="none" x="0" y="0" font-size="10px" fill="#FFFFFF" font-family="sans-serif"> Samuel L.</text><text class="caption" text-anchor="middle" pointer-events="none" x="0" y="10" font-size="10px" fill="#FFFFFF" font-family="sans-serif"> Jackson</text></g><g class="node" aria-label="graph-node206" transform="translate(-34.160976232848476,49.44617869484168)"><circle class="outline" cx="0" cy="0" r="25" fill="#F79767" stroke="#f36924" stroke-width="2px"/><text class="caption" text-anchor="middle" pointer-events="none" x="0" y="-5" font-size="10px" fill="#FFFFFF" font-family="sans-serif"> Captain</text><text class="caption" text-anchor="middle" pointer-events="none" x="0" y="5" font-size="10px" fill="#FFFFFF" font-family="sans-serif"> America:</text><text class="caption" text-anchor="middle" pointer-events="none" x="0" y="15" font-size="10px" fill="#FFFFFF" font-family="sans-serif"> Th</text></g></g></svg>